<svg xmlns="http://www.w3.org/2000/svg" width="171.479" height="172.671" viewBox="0 0 160.762 161.879">
  <path fill="#c99846" d="M43.643 89.93a27.56 20.545 58.252 0 0-1.207.83c.43.354.892 1.684 1.392 3.99 1.606 7.408 4.466 11.093 10.322 13.294 19.134 7.192 21.176 8.82 21.682 17.295.218 3.663-1.099 9.255-2.226 10.807a27.56 20.545 58.252 0 0 2.01-33.59A27.56 20.545 58.252 0 0 43.643 89.93zm-2.096 1.603a27.56 20.545 58.252 0 0-.873 32.645 27.56 20.545 58.252 0 0 31.973 12.626 27.56 20.545 58.252 0 0 .36-.247c-.118-.02-.229-.11-.33-.283-.334-.577-.725-2.582-.867-4.454-.517-6.803-3.776-9.852-15.565-14.574-9.389-3.76-11.586-5.162-13.855-8.828-2.104-3.401-2.527-5.796-1.929-10.917.344-2.94.703-4.924 1.086-5.968zM110.566 60.9a20.785 27.883 13.466 0 0-1.455-.275c.053.561-.574 1.84-1.873 3.842-4.175 6.433-4.783 11.113-2.19 16.886 8.473 18.865 8.76 21.492 3.034 27.895-2.474 2.767-7.428 5.808-9.346 6.104a20.785 27.883 13.466 0 0 25.551-22.495 20.785 27.883 13.466 0 0-13.72-31.957zm-2.644-.363a20.785 27.883 13.466 0 0-24.063 22.639 20.785 27.883 13.466 0 0 13.72 31.957 20.785 27.883 13.466 0 0 .435.082c-.07-.099-.084-.243-.031-.439.175-.651 1.336-2.36 2.58-3.797 4.516-5.219 4.382-9.733-.629-21.563-3.991-9.421-4.55-11.998-3.535-16.24.942-3.934 2.36-5.946 6.464-9.165 2.356-1.849 4.036-3.005 5.059-3.474zM61.22 22.804a21.86 29.324-6.532 0 1 1.555-.103c-.126.58.365 1.994 1.468 4.25 3.542 7.246 3.582 12.209.142 17.907-11.241 18.618-11.874 21.324-6.71 28.736 2.232 3.204 7.018 7.006 8.983 7.559a21.86 29.324-6.532 0 1-23.82-26.729 21.86 29.324-6.532 0 1 18.383-31.62zm2.808-.043a21.86 29.324-6.532 0 1 22.246 26.69 21.86 29.324-6.532 0 1-18.382 31.62 21.86 29.324-6.532 0 1-.463.03c.086-.093.118-.242.088-.453-.1-.702-1.095-2.634-2.211-4.292-4.052-6.022-3.34-10.718 3.394-22.432 5.363-9.329 6.274-11.948 5.752-16.505-.484-4.227-1.709-6.507-5.584-10.39-2.225-2.229-3.832-3.648-4.84-4.268z" />
</svg>